<?xml version="1.0"?>
<svg xmlns="http://www.w3.org/2000/svg" xmlns:xlink="http://www.w3.org/1999/xlink" xmlns:svgjs="http://svgjs.com/svgjs" version="1.1" width="512" height="512" x="0" y="0" viewBox="0 0 512 512" style="enable-background:new 0 0 512 512" xml:space="preserve" class=""><g><g xmlns="http://www.w3.org/2000/svg"><path d="m438.625 165.667h-10.438v-75.334c0-4.142-3.357-7.5-7.5-7.5s-7.5 3.358-7.5 7.5v75.333h-10.437c-4.143 0-7.5 3.358-7.5 7.5v207.084c0 4.142 3.357 7.5 7.5 7.5h10.438v75.333c0 4.142 3.357 7.5 7.5 7.5s7.5-3.358 7.5-7.5v-75.333h10.438c4.143 0 7.5-3.358 7.5-7.5v-207.083c-.001-4.143-3.358-7.5-7.501-7.5zm-7.5 207.083h-20.875v-192.083h20.875z" fill="#f6f9fc" data-original="#000000" style="" class=""/><path d="m306.875 41.417h-10.438v-33.917c0-4.142-3.357-7.5-7.5-7.5s-7.5 3.358-7.5 7.5v33.917h-10.437c-4.143 0-7.5 3.358-7.5 7.5v414.167c0 4.142 3.357 7.5 7.5 7.5h10.438v33.916c0 4.142 3.357 7.5 7.5 7.5s7.5-3.358 7.5-7.5v-33.917h10.438c4.143 0 7.5-3.358 7.5-7.5v-150.666c0-4.142-3.357-7.5-7.5-7.5s-7.5 3.358-7.5 7.5v143.167h-20.876v-399.167h20.875v226c0 4.142 3.357 7.5 7.5 7.5s7.5-3.358 7.5-7.5v-233.5c0-4.143-3.357-7.5-7.5-7.5z" fill="#f6f9fc" data-original="#000000" style="" class=""/><path d="m43.375 207.083h-10.437v-199.583c0-4.142-3.357-7.5-7.5-7.5s-7.5 3.358-7.5 7.5v199.583h-10.438c-4.143 0-7.5 3.358-7.5 7.5v207.083c0 4.142 3.357 7.5 7.5 7.5h10.438v75.334c0 4.142 3.357 7.5 7.5 7.5s7.5-3.358 7.5-7.5v-75.333h10.438c4.143 0 7.5-3.358 7.5-7.5v-207.084c-.001-4.142-3.358-7.5-7.501-7.5zm-7.5 207.084h-20.875v-192.084h20.875z" fill="#f6f9fc" data-original="#000000" style="" class=""/><path d="m504.5 207.083h-10.438v-199.583c0-4.142-3.357-7.5-7.5-7.5s-7.5 3.358-7.5 7.5v199.583h-10.438c-4.143 0-7.5 3.358-7.5 7.5v248.5c0 4.142 3.357 7.5 7.5 7.5h10.438v33.917c0 4.142 3.357 7.5 7.5 7.5s7.5-3.358 7.5-7.5v-33.917h10.438c4.143 0 7.5-3.358 7.5-7.5v-248.5c0-4.142-3.357-7.5-7.5-7.5zm-7.5 248.5h-20.875v-233.5h20.875z" fill="#f6f9fc" data-original="#000000" style="" class=""/><path d="m109.25 207.083h-10.437v-199.583c0-4.142-3.357-7.5-7.5-7.5s-7.5 3.358-7.5 7.5v199.583h-10.438c-4.143 0-7.5 3.358-7.5 7.5v248.5c0 4.142 3.357 7.5 7.5 7.5h10.438v33.917c0 4.142 3.357 7.5 7.5 7.5s7.5-3.358 7.5-7.5v-33.917h10.438c4.143 0 7.5-3.358 7.5-7.5v-248.5c-.001-4.142-3.358-7.5-7.501-7.5zm-7.5 248.5h-20.875v-233.5h20.875z" fill="#f6f9fc" data-original="#000000" style="" class=""/><path d="m241 82.833h-10.438v-33.916c0-4.142-3.357-7.5-7.5-7.5s-7.5 3.358-7.5 7.5v33.917h-10.438c-4.143 0-7.5 3.358-7.5 7.5v124.25c0 4.142 3.357 7.5 7.5 7.5h10.438v116.75c0 4.142 3.357 7.5 7.5 7.5s7.5-3.358 7.5-7.5v-116.75h10.438c4.143 0 7.5-3.358 7.5-7.5v-124.251c0-4.142-3.357-7.5-7.5-7.5zm-7.5 124.25h-20.875v-109.25h20.875z" fill="#f6f9fc" data-original="#000000" style="" class=""/><path d="m175.125 41.417h-10.438v-33.917c0-4.142-3.357-7.5-7.5-7.5s-7.5 3.358-7.5 7.5v33.917h-10.437c-4.143 0-7.5 3.358-7.5 7.5v289.917c0 4.142 3.357 7.5 7.5 7.5h10.438v75.333c0 4.142 3.357 7.5 7.5 7.5s7.5-3.358 7.5-7.5v-75.333h10.438c4.143 0 7.5-3.358 7.5-7.5v-289.917c-.001-4.143-3.358-7.5-7.501-7.5zm-7.5 289.916h-20.875v-274.916h20.875z" fill="#f6f9fc" data-original="#000000" style="" class=""/><path d="m372.75 289.917h-10.438v-241c0-4.142-3.357-7.5-7.5-7.5s-7.5 3.358-7.5 7.5v241h-10.438c-4.143 0-7.5 3.358-7.5 7.5v165.667c0 4.142 3.357 7.5 7.5 7.5h10.438v33.916c0 4.142 3.357 7.5 7.5 7.5s7.5-3.358 7.5-7.5v-33.917h10.438c4.143 0 7.5-3.358 7.5-7.5v-165.666c0-4.143-3.357-7.5-7.5-7.5zm-7.5 165.666h-20.875v-150.666h20.875z" fill="#f6f9fc" data-original="#000000" style="" class=""/></g></g></svg>
